<svg width="128" height="128" viewBox="0 0 128 128" fill="none" xmlns="http://www.w3.org/2000/svg">
<rect width="128" height="128" fill="#67B99B"/>
<circle cx="65.927" cy="54.3506" r="19.3352" fill="white"/>
<path d="M57.4023 109.97L82.6451 81.1358L34.3558 79.3518L57.4023 109.97Z" fill="white"/>
<rect x="12" y="52.4255" width="21.3615" height="21.3615" transform="rotate(-37.5861 12 52.4255)" fill="white"/>
<rect x="35.1262" y="32.7548" width="10.1794" height="10.1794" transform="rotate(-26.3756 35.1262 32.7548)" fill="white"/>
<rect x="53.969" y="22.6973" width="7.44993" height="7.44993" transform="rotate(-5.37069 53.969 22.6973)" fill="white"/>
<path d="M84.2363 28.0668C89.3606 28.0668 119.25 50.2285 119.25 55.3739C119.25 60.5193 96.859 73.6857 91.7347 73.6857C86.6104 73.6857 100.693 60.5193 100.693 55.3739C100.693 50.2285 79.112 28.0668 84.2363 28.0668Z" fill="white"/>
</svg>
