<svg width="256" height="256" viewBox="0 0 256 256" fill="none" xmlns="http://www.w3.org/2000/svg">
<rect width="256" height="256" fill="#67B99B"/>
<circle cx="131.642" cy="115.974" r="38.2358" fill="white"/>
<path d="M114.784 225.963L164.703 168.943L69.2094 165.415L114.784 225.963Z" fill="white"/>
<rect x="25" y="112.167" width="42.2429" height="42.2429" transform="rotate(-37.5861 25 112.167)" fill="white"/>
<rect x="70.7328" y="73.2678" width="20.1301" height="20.1301" transform="rotate(-26.3756 70.7328 73.2678)" fill="white"/>
<rect x="107.995" y="53.379" width="14.7324" height="14.7324" transform="rotate(-5.37069 107.995 53.379)" fill="white"/>
<path d="M167.849 63.9973C177.983 63.9973 237.089 107.823 237.089 117.998C237.089 128.173 192.811 154.21 182.678 154.21C172.544 154.21 200.393 128.173 200.393 117.998C200.393 107.823 157.716 63.9973 167.849 63.9973Z" fill="white"/>
</svg>
